<svg width="331.331" height="331.331" xmlns="http://www.w3.org/2000/svg">

 <g>
  <title>background</title>
  <rect fill="none" id="canvas_background" height="333.331" width="333.331" y="-1" x="-1"/>
 </g>
 <g>
  <title>Layer 1</title>
  <g id="svg_8"/>
  <g id="svg_9"/>
  <g id="svg_10"/>
  <g id="svg_11"/>
  <g id="svg_12"/>
  <g id="svg_13"/>
  <g id="svg_14"/>
  <g id="svg_15"/>
  <g id="svg_16"/>
  <g id="svg_17"/>
  <g id="svg_18"/>
  <g id="svg_19"/>
  <g id="svg_20"/>
  <g id="svg_21"/>
  <g id="svg_22"/>
  <path id="svg_27" d="m35.03252,257.81281c2.11266,-4.22533 40.14059,-71.83053 42.25325,-73.9432c2.11267,-2.11266 59.15456,-66.90098 59.15456,-66.90098c0,0 67.60521,-48.59125 67.60521,-48.59125c0,0 57.74611,-34.50682 57.74611,-34.50682c0,0 21.12663,11.26753 21.12663,11.26753c0,0 -97.18249,71.12632 -97.70818,71.05836c0.52569,0.06796 -60.03731,51.47608 -60.03731,50.06764c0,-1.40844 -28.87305,41.54903 -27.46461,41.54903c1.40844,0 -31.68994,38.02793 -31.68994,38.02793c0,0 -8.45065,15.49286 -8.97635,15.4249c0.5257,0.06796 -5.10807,6.40595 -5.10807,7.11017c0,0.70422 -19.71818,0.70422 -19.71818,0.70422" stroke-opacity="null" stroke-width="1.5" stroke="#000" fill="#ff624e"/>
  <path id="svg_26" d="m63.905576,254.291703" opacity="0.5" stroke-width="1.5" stroke="#000" fill="#fff"/>
  <path id="svg_30" d="m28.68712,323.29795c70.03677,1.86821 139.10955,-30.50385 177.30798,-45.97449c38.19843,-15.47064 41.17223,-12.98981 44.3295,-13.97448c3.15727,-0.98467 57.99007,-22.42266 66.93802,-10.91171" opacity="0.5" fill-opacity="null" stroke-opacity="null" stroke-width="1.5" stroke="#000" fill="#ff624e"/>
  <g id="svg_1">
   <path id="svg_2" fill="#010002" d="m30.421,318.514628l4.422,-17.661l-12.194,-4.814l-8.376,13.804c0,0 4.618,12.526 -0.511,22.539c0.004,0.001 6.422,-10.931 16.659,-13.868zm-8.192,-8.104c1.501,-0.615 3.231,0.087 3.851,1.561c0.625,1.474 -0.087,3.171 -1.588,3.786c-1.501,0.615 -3.231,-0.087 -3.851,-1.561c-0.631,-1.48 0.082,-3.177 1.588,-3.786z"/>
   <path id="svg_3" fill="#010002" d="m158.353,113.673628c-35.115,28.8 -81.086,88.124 -120.073,157.423l-0.022,-0.027l-6.815,12.026l7.267,2.796l3.84,-10.117c20.799,-37.491 77.224,-135.4 180.397,-200.451c0,0 38.411,-22.877 76.256,-54.516c-9.214,7.702 -27.391,17.356 -37.247,23.584c-25.868,16.344 -57.79,31.704 -103.603,69.282z"/>
   <path id="svg_4" fill="#010002" d="m33.2,216.417628c-7.985,28.223 -7.528,49.718 -4.438,55.625l4.83,0c13.337,-27.625 77.572,-127.693 117.554,-159.016c41.424,-32.455 73.378,-51.339 100.253,-65.111c9.437,-4.835 19.118,-11.384 27.848,-17.949c10.601,-8.36 21.348,-17.302 30.758,-26.053l-27.277,17.889l12.162,-18.602l-23.22,23.611l15.11,-25.759c-35.746,3.225 -68.918,21.109 -68.918,21.109c-13.271,15.741 -23.959,40.782 -23.959,40.782c-0.37,-12.521 8.11,-31.481 8.11,-31.481c-6.266,2.861 -30.073,16.459 -30.073,16.459c-11.645,9.66 -15.262,35.06 -15.262,35.06c-2.214,-10.019 5.526,-29.333 5.526,-29.333c-33.543,19.32 -57.502,52.231 -57.502,52.231c-16.584,32.553 -2.948,57.953 -8.11,51.872c-5.162,-6.081 -4.052,-28.261 -4.052,-28.261c-35.017,33.63 -38.699,49.724 -38.699,49.724c-5.896,14.31 -11.058,52.59 -11.058,52.59c-3.318,-3.579 0,-23.611 0,-23.611c-8.479,17.889 -4.422,34.701 -4.422,34.701c-4.052,-1.435 -5.161,-26.477 -5.161,-26.477z"/>
   <path id="svg_5" fill="#010002" d="m310.01,15.243628c0,0 -13.483,13.065 -30.758,26.053c-27.081,21.359 -53.156,38.819 -53.156,38.819c-102.151,60.362 -159.071,158.869 -177.884,192.645l10.002,0c3.535,-2.834 8.844,-4.971 31.014,-11.389c28.011,-8.11 44.72,-25.041 44.72,-25.041s-25.553,14.31 -37.595,12.88s-28.223,3.1 -28.223,3.1s-6.179,-2.861 24.291,-7.392s80.596,-38.634 80.596,-38.634s-19.167,7.87 -28.011,7.152c-8.844,-0.718 -30.714,0 -30.714,0c14.495,-3.34 28.011,-1.43 50.126,-9.779c22.115,-8.349 20.886,-7.631 20.886,-7.631c25.063,-8.349 35.474,-34.342 35.474,-34.342c-4.335,1.67 -37.443,5.722 -51.176,1.67c-13.734,-4.052 -37.132,0 -37.132,0c22.115,-7.392 27.032,-4.052 32.433,-4.291c5.406,-0.239 22.855,1.191 57.502,-10.731s44.475,-26.711 44.475,-26.711l-23.366,3.122c15.257,-2.567 32.455,-12.662 32.455,-12.662c-10.568,2.861 -27.032,4.291 -27.032,4.291c19.412,-4.291 30.225,-10.253 30.225,-10.253c18.183,-13.832 22.36,-34.342 22.36,-34.342c-25.803,8.822 -46.194,4.77 -46.194,4.77c35.387,-2.382 45.215,-11.449 50.126,-13.592c4.917,-2.148 6.94,-11.03 6.94,-11.03c-17.878,6.44 -38.15,7.511 -38.15,7.511c21.93,-3.399 40.722,-14.49 40.722,-14.49l0,-11.102c-8.479,4.83 -23.399,8.588 -23.399,8.588l23.219,-15.023c1.305,-7.516 -4.776,-12.166 -4.776,-12.166z"/>
   <polygon id="svg_6" fill="#010002" points="23.551000595092773,291.6236420869827 37.361000061035156,297.1556245088577 39.93299865722656,291.04164135456085 26.124000549316406,285.51063549518585 "/>
   <path id="svg_7" fill="#010002" d="m177.036,286.510628c-45.628,21.936 -89.462,36.888 -147.758,38.846c-5.439,0.185 -5.466,5.624 0,5.439c52.15,-1.751 95.543,-12.961 137.391,-32.575c46.618,-21.854 89.435,-40.167 147.828,-46.39c5.385,-0.577 3.095,-5.814 -2.252,-5.243c-51.714,5.516 -93.731,19.984 -135.209,39.923z"/>
  </g>
 </g>
</svg>